<svg width="35" height="19" viewBox="0 0 35 19" fill="none" xmlns="http://www.w3.org/2000/svg">
<path d="M6.90891 0H5.18164V1.72727H6.90891V0Z" fill="#CDCAC7"/>
<path d="M6.90891 1.72729H5.18164V3.45457H6.90891V1.72729Z" fill="#CDCAC7"/>
<path d="M21.591 1.72729H6.90918V15.5455H21.591V1.72729Z" fill="#CDCAC7"/>
<path d="M6.90891 3.45453H5.18164V5.1818H6.90891V3.45453Z" fill="#CDCAC7"/>
<path d="M6.90891 5.18182H5.18164V6.9091H6.90891V5.18182Z" fill="#CDCAC7"/>
<path d="M6.90891 6.90912H5.18164V8.63639H6.90891V6.90912Z" fill="#CDCAC7"/>
<path d="M6.90891 8.63635H5.18164V10.3636H6.90891V8.63635Z" fill="#CDCAC7"/>
<path d="M6.90891 10.3636H5.18164V12.0909H6.90891V10.3636Z" fill="#CDCAC7"/>
<path d="M8.63645 0H6.90918V1.72727H8.63645V0Z" fill="#CDCAC7"/>
<path d="M10.3635 0H8.63623V1.72727H10.3635V0Z" fill="#CDCAC7"/>
<path d="M12.091 0H10.3638V1.72727H12.091V0Z" fill="#CDCAC7"/>
<path d="M13.8181 0H12.0908V1.72727H13.8181V0Z" fill="#CDCAC7"/>
<path d="M15.5456 0H13.8184V1.72727H15.5456V0Z" fill="#CDCAC7"/>
<path d="M17.2727 0H15.5454V1.72727H17.2727V0Z" fill="#CDCAC7"/>
<path d="M19.0002 0H17.2729V1.72727H19.0002V0Z" fill="#CDCAC7"/>
<path d="M20.7273 0H19V1.72727H20.7273V0Z" fill="#CDCAC7"/>
<path d="M22.4543 0H20.7271V1.72727H22.4543V0Z" fill="#CDCAC7"/>
<path d="M21.591 1.72729H19.8638V6.90911H21.591V1.72729Z" fill="#CDCAC7"/>
<path d="M21.591 10.3636H19.8638V15.5455H21.591V10.3636Z" fill="#CDCAC7"/>
<path d="M25.9089 0H24.1816V1.72727H25.9089V0Z" fill="#CDCAC7"/>
<path d="M29.3635 3.45453H27.6362V6.90907H29.3635V3.45453Z" fill="#CDCAC7"/>
<path d="M29.3639 6.90912H26.7729V8.63639H29.3639V6.90912Z" fill="#CDCAC7"/>
<path d="M30.2273 8.63635H28.5V15.5454H30.2273V8.63635Z" fill="#CDCAC7"/>
<path d="M28.4999 10.3636H21.5908V15.5455H28.4999V10.3636Z" fill="#CDCAC7"/>
<path d="M27.6363 5.18182H21.5908V6.9091H27.6363V5.18182Z" fill="#CDCAC7"/>
<path d="M31.091 5.18182H29.3638V15.5455H31.091V5.18182Z" fill="#CDCAC7"/>
<path d="M32.8181 6.90912H31.0908V15.5455H32.8181V6.90912Z" fill="#CDCAC7"/>
<path d="M34.5456 8.63635H32.8184V10.3636H34.5456V8.63635Z" fill="#CDCAC7"/>
<path d="M34.5456 10.3636H32.8184V12.0909H34.5456V10.3636Z" fill="#CDCAC7"/>
<path d="M34.5456 12.0909H32.8184V13.8182H34.5456V12.0909Z" fill="#CDCAC7"/>
<path d="M24.1819 0H22.4546V1.72727H24.1819V0Z" fill="#CDCAC7"/>
<path d="M25.909 1.72729H21.5908V5.18184H25.909V1.72729Z" fill="#CDCAC7"/>
<path d="M27.6365 1.72729H25.9092V5.18184H27.6365V1.72729Z" fill="#CDCAC7"/>
<path d="M34.5456 13.8182H32.8184V15.5454H34.5456V13.8182Z" fill="#CDCAC7"/>
<path d="M34.5456 15.5455H32.8184V17.2727H34.5456V15.5455Z" fill="#CDCAC7"/>
<path d="M32.8181 15.5455H31.0908V17.2727H32.8181V15.5455Z" fill="#CDCAC7"/>
<path d="M31.091 15.5455H29.3638V17.2727H31.091V15.5455Z" fill="#CDCAC7"/>
<path d="M31.091 17.2727H29.3638V19H31.091V17.2727Z" fill="#CDCAC7"/>
<path d="M29.3635 17.2727H27.6362V19H29.3635V17.2727Z" fill="#CDCAC7"/>
<path d="M27.6365 17.2727H25.9092V19H27.6365V17.2727Z" fill="#CDCAC7"/>
<path d="M25.9089 17.2727H24.1816V19H25.9089V17.2727Z" fill="#CDCAC7"/>
<path d="M25.9089 15.5455H24.1816V17.2727H25.9089V15.5455Z" fill="#CDCAC7"/>
<path d="M24.1819 15.5455H22.4546V17.2727H24.1819V15.5455Z" fill="#CDCAC7"/>
<path d="M19.0002 15.5455H17.2729V17.2727H19.0002V15.5455Z" fill="#CDCAC7"/>
<path d="M20.7273 15.5455H19V17.2727H20.7273V15.5455Z" fill="#CDCAC7"/>
<path d="M22.4543 15.5455H20.7271V17.2727H22.4543V15.5455Z" fill="#CDCAC7"/>
<path d="M17.2727 15.5455H15.5454V17.2727H17.2727V15.5455Z" fill="#CDCAC7"/>
<path d="M15.5456 15.5455H13.8184V17.2727H15.5456V15.5455Z" fill="#CDCAC7"/>
<path d="M12.091 17.2727H10.3638V19H12.091V17.2727Z" fill="#CDCAC7"/>
<path d="M13.8181 17.2727H12.0908V19H13.8181V17.2727Z" fill="#CDCAC7"/>
<path d="M15.5456 17.2727H13.8184V19H15.5456V17.2727Z" fill="#CDCAC7"/>
<path d="M10.3635 17.2727H8.63623V19H10.3635V17.2727Z" fill="#CDCAC7"/>
<path d="M5.18186 17.2727H3.45459V19H5.18186V17.2727Z" fill="#CDCAC7"/>
<path d="M1.72727 17.2727H0V19H1.72727V17.2727Z" fill="#CDCAC7"/>
<path d="M8.63645 15.5455H6.90918V17.2727H8.63645V15.5455Z" fill="#CDCAC7"/>
<path d="M10.3635 15.5455H8.63623V17.2727H10.3635V15.5455Z" fill="#CDCAC7"/>
<path d="M6.90891 12.0909H5.18164V13.8182H6.90891V12.0909Z" fill="#CDCAC7"/>
<path d="M6.90891 13.8182H5.18164V15.5454H6.90891V13.8182Z" fill="#CDCAC7"/>
</svg>
